<svg xmlns="http://www.w3.org/2000/svg" xmlns:xlink="http://www.w3.org/1999/xlink" width="90" height="40" viewBox="0 0 90 40">
  <defs>
    <clipPath id="clip-path">
      <rect id="Rectangle_14" data-name="Rectangle 14" width="90" height="40" transform="translate(140.251)" fill="#fff"/>
    </clipPath>
  </defs>
  <g id="Mask_Group_4" data-name="Mask Group 4" transform="translate(-140.251)" clip-path="url(#clip-path)">
    <g id="Green_Simple_Company_Negative_Aircraft_Space_Logo-removebg-preview" transform="translate(165.398)">
      <path id="Path_18" data-name="Path 18" d="M108.2-217.3c-.855.757-1.059,1.7-1.242,5.81l-.122,2.946-2.546,1.6c-2.628,1.646-2.852,1.7-2.852.708a1.136,1.136,0,0,0-1.059-1.053,1.3,1.3,0,0,0-.672.329c-.306.263-.346.527-.265,1.646l.1,1.333L97.815-203c-1.813,1.02-2.078,1.037-2.078.148,0-.56-.346-.823-1.059-.823-.754,0-.978.461-.978,1.959v1.119l-1.976,1.218c-2.241,1.383-2.648,1.909-2.424,3.16l.143.741,3.687-1.383c6.131-2.3,10.266-3.522,11.977-3.522a2.669,2.669,0,0,1,2.2.889c.285.428.346,1.119.407,4.543l.061,4.032-2.424,1.531c-1.344.839-2.587,1.629-2.77,1.728a2.231,2.231,0,0,0-.53,1.169,2.209,2.209,0,0,1-.448,1.119,3.941,3.941,0,0,1-1.12.132c-1.2,0-1.487.132-1.487.675,0,.362.1.477.407.477.387,0,.407.115.407,1.81s-.02,1.81-.407,1.81c-.326,0-.407.115-.407.576v.576h3.87v-.576c0-.461-.081-.576-.407-.576-.407,0-.407-.082-.367-2.419l.061-2.419,3.137-.724c3.32-.741,3.483-.741,3.483.082,0,.543.346.461.509-.115a1.5,1.5,0,0,1,.265-.56,33.21,33.21,0,0,1,3.3.625,16.642,16.642,0,0,0,3.239.56,5.006,5.006,0,0,0-.346-2.024c-.081-.1-1.3-.905-2.729-1.778l-2.607-1.613v-1.185c.02-.658.1-2.337.183-3.736.265-3.95.957-5.02,3.279-5.02,1.018,0,1.67.214,7.842,2.6,3.707,1.448,6.844,2.65,6.986,2.7.183.066.244-.2.244-.988,0-1.317-.183-1.514-2.628-2.913l-1.854-1.053v-1.267c0-1.4-.2-2.024-.693-2.173-.713-.23-1.181.3-1.385,1.5-.061.362-.143.329-1.792-.576l-1.731-.955-.041-1.07c-.081-1.58-.244-2.123-.672-2.3-.713-.313-1.161.049-1.324,1.07l-.122.905L113.947-207l-2.729-1.679v-1.81a21.17,21.17,0,0,0-.733-6.189A1.4,1.4,0,0,0,108.2-217.3Z" transform="translate(-89.246 217.675)" fill="#fff"/>
      <path id="Path_19" data-name="Path 19" d="M97.523-103.1a1.432,1.432,0,0,0-.143.757c0,.56.061.625.509.625h.53l-.061,1.679c-.061,1.613-.081,1.7-.509,1.745-.387.049-.468.165-.468.708v.642h4.277V-97.6c0-.543-.061-.658-.407-.658s-.407-.115-.407-.658c0-.593.061-.658.509-.658.428,0,.509-.082.509-.494s-.081-.494-.509-.494c-.448,0-.509-.066-.509-.576,0-.527.061-.576.591-.576.509,0,.611.082.713.576.122.527.2.576.855.576h.713l-.061-1.284-.061-1.267-2.953-.049A21.268,21.268,0,0,0,97.523-103.1Z" transform="translate(-94.556 135.3)" fill="#fff"/>
      <path id="Path_20" data-name="Path 20" d="M152.993-95.926c-.835.148-.876.181-.876.741,0,.527.041.576.468.477,1.181-.3,1.915-.3,2.241-.016.55.428.407.609-.346.477-1.955-.3-3.361,1.086-2.1,2.041a2.386,2.386,0,0,0,2.3.115c.509-.313.693-.313.693,0,0,.2.265.247,1.222.247h1.222v-.576c0-.313-.081-.576-.2-.576s-.2-.461-.2-1.053c0-1.267-.346-1.7-1.528-1.909A7.155,7.155,0,0,0,152.993-95.926Z" transform="translate(-130.146 130.203)" fill="#fff"/>
      <path id="Path_21" data-name="Path 21" d="M184.938-96.011c-1.487.1-1.65.165-1.609.658,0,.3.143.477.346.51.53.082.489,1.679-.041,1.794-.224.049-.367.2-.326.346a2.814,2.814,0,0,1,.081.56c.02.263.244.3,1.854.3h1.833v-.576c0-.461-.081-.576-.407-.576-.346,0-.407-.115-.407-.642,0-.757.367-1.053,1.1-.905.509.1.53.082.53-.757,0-.806-.02-.839-.448-.724a2.17,2.17,0,0,0-.815.362c-.346.23-.367.214-.367-.1,0-.2-.122-.346-.244-.329C185.875-96.077,185.386-96.044,184.938-96.011Z" transform="translate(-150.644 130.206)" fill="#fff"/>
      <path id="Path_22" data-name="Path 22" d="M130.232-95.045c0,.444.081.576.367.576a10.349,10.349,0,0,1,2.485,2.946c0,.082-.244.181-.55.214-.489.049-.57.132-.631.658l-.061.625h3.279v-.658c0-.461-.081-.658-.285-.658-.387,0,1.568-3.028,2.017-3.094.2-.033.306-.247.306-.625v-.56h-2.648v.576c0,.313.081.576.2.576.1,0,.041.263-.143.576l-.346.576-.407-.527c-.285-.362-.346-.543-.163-.593.143-.033.244-.313.244-.625v-.56h-3.666Z" transform="translate(-116.001 129.865)" fill="#fff"/>
      <path id="Path_23" data-name="Path 23" d="M172.07-95.505c-.693.066-.774.115-.774.56,0,.313.1.477.306.477.244,0,.306.214.306.905s-.061.905-.306.905c-.2,0-.306.181-.306.576v.576h3.463v-.576c0-.4-.1-.576-.306-.576-.244,0-.306-.28-.306-1.481v-1.481l-.652.033C173.129-95.571,172.477-95.538,172.07-95.505Z" transform="translate(-142.807 129.865)" fill="#fff"/>
    </g>
  </g>
</svg>
